<mxfile host="app.diagrams.net" agent="Mozilla/5.0 (Windows NT 10.0; Win64; x64) AppleWebKit/537.36 (KHTML, like Gecko) Chrome/131.0.0.0 Safari/537.36" version="26.0.8">
  <diagram name="Page-1" id="hjKpgeTEnB3pS1Tjzeat">
    <mxGraphModel dx="211" dy="751" grid="1" gridSize="10" guides="1" tooltips="1" connect="1" arrows="1" fold="1" page="1" pageScale="1" pageWidth="1100" pageHeight="850" math="0" shadow="0">
      <root>
        <mxCell id="0" />
        <mxCell id="1" parent="0" />
        <mxCell id="h_uBRZaTM7QVk479KPii-27" style="edgeStyle=orthogonalEdgeStyle;rounded=0;orthogonalLoop=1;jettySize=auto;html=1;exitX=1;exitY=0.5;exitDx=0;exitDy=0;entryX=0.25;entryY=1;entryDx=0;entryDy=0;startArrow=classic;startFill=1;" edge="1" parent="1" source="h_uBRZaTM7QVk479KPii-1" target="h_uBRZaTM7QVk479KPii-25">
          <mxGeometry relative="1" as="geometry" />
        </mxCell>
        <mxCell id="h_uBRZaTM7QVk479KPii-1" value="ATmega328" style="rounded=0;whiteSpace=wrap;html=1;" vertex="1" parent="1">
          <mxGeometry x="1360" y="555" width="120" height="60" as="geometry" />
        </mxCell>
        <mxCell id="h_uBRZaTM7QVk479KPii-24" style="edgeStyle=orthogonalEdgeStyle;rounded=0;orthogonalLoop=1;jettySize=auto;html=1;exitX=1;exitY=0.5;exitDx=0;exitDy=0;entryX=0.5;entryY=0;entryDx=0;entryDy=0;" edge="1" parent="1" source="h_uBRZaTM7QVk479KPii-2" target="h_uBRZaTM7QVk479KPii-22">
          <mxGeometry relative="1" as="geometry" />
        </mxCell>
        <mxCell id="h_uBRZaTM7QVk479KPii-2" value="sim800l" style="whiteSpace=wrap;html=1;aspect=fixed;" vertex="1" parent="1">
          <mxGeometry x="1760" y="485" width="80" height="80" as="geometry" />
        </mxCell>
        <mxCell id="h_uBRZaTM7QVk479KPii-3" style="edgeStyle=orthogonalEdgeStyle;rounded=0;orthogonalLoop=1;jettySize=auto;html=1;exitX=0.5;exitY=1;exitDx=0;exitDy=0;entryX=0.5;entryY=0;entryDx=0;entryDy=0;" edge="1" parent="1" source="h_uBRZaTM7QVk479KPii-4" target="h_uBRZaTM7QVk479KPii-1">
          <mxGeometry relative="1" as="geometry" />
        </mxCell>
        <mxCell id="h_uBRZaTM7QVk479KPii-16" style="edgeStyle=orthogonalEdgeStyle;rounded=0;orthogonalLoop=1;jettySize=auto;html=1;exitX=0.5;exitY=1;exitDx=0;exitDy=0;entryX=0.5;entryY=0;entryDx=0;entryDy=0;" edge="1" parent="1" source="h_uBRZaTM7QVk479KPii-4" target="h_uBRZaTM7QVk479KPii-15">
          <mxGeometry relative="1" as="geometry">
            <Array as="points">
              <mxPoint x="1420" y="420" />
              <mxPoint x="1215" y="420" />
            </Array>
          </mxGeometry>
        </mxCell>
        <mxCell id="h_uBRZaTM7QVk479KPii-20" style="edgeStyle=orthogonalEdgeStyle;rounded=0;orthogonalLoop=1;jettySize=auto;html=1;exitX=0.5;exitY=1;exitDx=0;exitDy=0;entryX=0.5;entryY=0;entryDx=0;entryDy=0;" edge="1" parent="1" source="h_uBRZaTM7QVk479KPii-4" target="h_uBRZaTM7QVk479KPii-18">
          <mxGeometry relative="1" as="geometry">
            <Array as="points">
              <mxPoint x="1420" y="420" />
              <mxPoint x="1680" y="420" />
            </Array>
          </mxGeometry>
        </mxCell>
        <mxCell id="h_uBRZaTM7QVk479KPii-26" style="edgeStyle=orthogonalEdgeStyle;rounded=0;orthogonalLoop=1;jettySize=auto;html=1;exitX=0.5;exitY=1;exitDx=0;exitDy=0;entryX=0;entryY=0.5;entryDx=0;entryDy=0;" edge="1" parent="1" source="h_uBRZaTM7QVk479KPii-4" target="h_uBRZaTM7QVk479KPii-25">
          <mxGeometry relative="1" as="geometry" />
        </mxCell>
        <mxCell id="h_uBRZaTM7QVk479KPii-29" style="edgeStyle=orthogonalEdgeStyle;rounded=0;orthogonalLoop=1;jettySize=auto;html=1;exitX=0.5;exitY=1;exitDx=0;exitDy=0;endArrow=oval;endFill=1;" edge="1" parent="1" source="h_uBRZaTM7QVk479KPii-4">
          <mxGeometry relative="1" as="geometry">
            <mxPoint x="1419.5882352941178" y="420" as="targetPoint" />
          </mxGeometry>
        </mxCell>
        <mxCell id="h_uBRZaTM7QVk479KPii-30" style="edgeStyle=orthogonalEdgeStyle;rounded=0;orthogonalLoop=1;jettySize=auto;html=1;exitX=0.5;exitY=1;exitDx=0;exitDy=0;endArrow=oval;endFill=1;" edge="1" parent="1" source="h_uBRZaTM7QVk479KPii-4">
          <mxGeometry relative="1" as="geometry">
            <mxPoint x="1419.5882352941178" y="460" as="targetPoint" />
          </mxGeometry>
        </mxCell>
        <mxCell id="h_uBRZaTM7QVk479KPii-4" value="Buck&lt;div&gt;12VDC-5VDC&lt;/div&gt;" style="whiteSpace=wrap;html=1;aspect=fixed;" vertex="1" parent="1">
          <mxGeometry x="1380" y="285" width="80" height="80" as="geometry" />
        </mxCell>
        <mxCell id="h_uBRZaTM7QVk479KPii-5" style="edgeStyle=orthogonalEdgeStyle;rounded=0;orthogonalLoop=1;jettySize=auto;html=1;exitX=0.5;exitY=1;exitDx=0;exitDy=0;entryX=0.5;entryY=0;entryDx=0;entryDy=0;" edge="1" parent="1" source="h_uBRZaTM7QVk479KPii-6" target="h_uBRZaTM7QVk479KPii-2">
          <mxGeometry relative="1" as="geometry">
            <mxPoint x="1850" y="435" as="targetPoint" />
          </mxGeometry>
        </mxCell>
        <mxCell id="h_uBRZaTM7QVk479KPii-6" value="Buck&lt;div&gt;5VDC-4.1VDC&lt;/div&gt;" style="whiteSpace=wrap;html=1;aspect=fixed;" vertex="1" parent="1">
          <mxGeometry x="1760" y="285" width="80" height="80" as="geometry" />
        </mxCell>
        <mxCell id="h_uBRZaTM7QVk479KPii-7" value="IN 4.1VDC" style="text;html=1;align=center;verticalAlign=middle;whiteSpace=wrap;rounded=0;" vertex="1" parent="1">
          <mxGeometry x="1730" y="440" width="60" height="30" as="geometry" />
        </mxCell>
        <mxCell id="h_uBRZaTM7QVk479KPii-8" value="IN 5VDC" style="text;html=1;align=center;verticalAlign=middle;whiteSpace=wrap;rounded=0;" vertex="1" parent="1">
          <mxGeometry x="1420" y="500" width="60" height="30" as="geometry" />
        </mxCell>
        <mxCell id="h_uBRZaTM7QVk479KPii-9" value="IN 12VDC" style="text;html=1;align=center;verticalAlign=middle;whiteSpace=wrap;rounded=0;" vertex="1" parent="1">
          <mxGeometry x="1420" y="255" width="60" height="30" as="geometry" />
        </mxCell>
        <mxCell id="h_uBRZaTM7QVk479KPii-10" value="IN 12VDC" style="text;html=1;align=center;verticalAlign=middle;whiteSpace=wrap;rounded=0;" vertex="1" parent="1">
          <mxGeometry x="1560" y="255" width="60" height="30" as="geometry" />
        </mxCell>
        <mxCell id="h_uBRZaTM7QVk479KPii-11" style="edgeStyle=orthogonalEdgeStyle;rounded=0;orthogonalLoop=1;jettySize=auto;html=1;exitX=1;exitY=0.5;exitDx=0;exitDy=0;entryX=0.5;entryY=0;entryDx=0;entryDy=0;" edge="1" parent="1" source="h_uBRZaTM7QVk479KPii-13" target="h_uBRZaTM7QVk479KPii-4">
          <mxGeometry relative="1" as="geometry" />
        </mxCell>
        <mxCell id="h_uBRZaTM7QVk479KPii-12" style="edgeStyle=orthogonalEdgeStyle;rounded=0;orthogonalLoop=1;jettySize=auto;html=1;exitX=1;exitY=0.5;exitDx=0;exitDy=0;" edge="1" parent="1" source="h_uBRZaTM7QVk479KPii-13" target="h_uBRZaTM7QVk479KPii-6">
          <mxGeometry relative="1" as="geometry" />
        </mxCell>
        <mxCell id="h_uBRZaTM7QVk479KPii-28" style="edgeStyle=orthogonalEdgeStyle;rounded=0;orthogonalLoop=1;jettySize=auto;html=1;exitX=1;exitY=0.5;exitDx=0;exitDy=0;endArrow=oval;endFill=1;" edge="1" parent="1" source="h_uBRZaTM7QVk479KPii-13">
          <mxGeometry relative="1" as="geometry">
            <mxPoint x="1540" y="240" as="targetPoint" />
          </mxGeometry>
        </mxCell>
        <mxCell id="h_uBRZaTM7QVk479KPii-13" value="&lt;div&gt;220VAC&lt;/div&gt;&lt;div&gt;&lt;br&gt;&lt;/div&gt;&lt;div&gt;&lt;br&gt;&lt;/div&gt;&lt;div&gt;&lt;br&gt;&lt;/div&gt;&lt;div&gt;&lt;br&gt;&lt;/div&gt;&lt;div&gt;&lt;br&gt;&lt;/div&gt;&lt;div&gt;&lt;br&gt;&lt;/div&gt;&lt;div&gt;12VDC&lt;/div&gt;" style="rounded=0;whiteSpace=wrap;html=1;direction=south;" vertex="1" parent="1">
          <mxGeometry x="1370" y="40" width="340" height="160" as="geometry" />
        </mxCell>
        <mxCell id="h_uBRZaTM7QVk479KPii-14" value="&lt;font style=&quot;font-size: 20px;&quot;&gt;Вариант 3&lt;/font&gt;" style="text;html=1;align=center;verticalAlign=middle;whiteSpace=wrap;rounded=0;" vertex="1" parent="1">
          <mxGeometry x="1460" y="10" width="130" height="30" as="geometry" />
        </mxCell>
        <mxCell id="h_uBRZaTM7QVk479KPii-17" style="edgeStyle=orthogonalEdgeStyle;rounded=0;orthogonalLoop=1;jettySize=auto;html=1;exitX=1;exitY=0.5;exitDx=0;exitDy=0;entryX=0;entryY=0.5;entryDx=0;entryDy=0;startArrow=classic;startFill=1;" edge="1" parent="1" source="h_uBRZaTM7QVk479KPii-15" target="h_uBRZaTM7QVk479KPii-1">
          <mxGeometry relative="1" as="geometry" />
        </mxCell>
        <mxCell id="h_uBRZaTM7QVk479KPii-15" value="Клавиатура" style="whiteSpace=wrap;html=1;aspect=fixed;" vertex="1" parent="1">
          <mxGeometry x="1110" y="480" width="210" height="210" as="geometry" />
        </mxCell>
        <mxCell id="h_uBRZaTM7QVk479KPii-21" style="edgeStyle=orthogonalEdgeStyle;rounded=0;orthogonalLoop=1;jettySize=auto;html=1;exitX=1;exitY=0;exitDx=0;exitDy=0;entryX=0;entryY=0.5;entryDx=0;entryDy=0;" edge="1" parent="1" source="h_uBRZaTM7QVk479KPii-18" target="h_uBRZaTM7QVk479KPii-2">
          <mxGeometry relative="1" as="geometry">
            <Array as="points">
              <mxPoint x="1708" y="525" />
            </Array>
          </mxGeometry>
        </mxCell>
        <mxCell id="h_uBRZaTM7QVk479KPii-18" value="микрофон" style="ellipse;whiteSpace=wrap;html=1;aspect=fixed;" vertex="1" parent="1">
          <mxGeometry x="1640" y="545" width="80" height="80" as="geometry" />
        </mxCell>
        <mxCell id="h_uBRZaTM7QVk479KPii-19" value="" style="endArrow=none;html=1;rounded=0;" edge="1" parent="1">
          <mxGeometry width="50" height="50" relative="1" as="geometry">
            <mxPoint x="1720" y="543.82" as="sourcePoint" />
            <mxPoint x="1640" y="543.82" as="targetPoint" />
          </mxGeometry>
        </mxCell>
        <mxCell id="h_uBRZaTM7QVk479KPii-22" value="" style="rounded=0;whiteSpace=wrap;html=1;" vertex="1" parent="1">
          <mxGeometry x="1880" y="550" width="60" height="30" as="geometry" />
        </mxCell>
        <mxCell id="h_uBRZaTM7QVk479KPii-23" value="" style="shape=trapezoid;perimeter=trapezoidPerimeter;whiteSpace=wrap;html=1;fixedSize=1;" vertex="1" parent="1">
          <mxGeometry x="1860" y="580" width="100" height="40" as="geometry" />
        </mxCell>
        <mxCell id="h_uBRZaTM7QVk479KPii-25" value="СД&lt;div&gt;Четец&lt;/div&gt;" style="rounded=0;whiteSpace=wrap;html=1;direction=south;" vertex="1" parent="1">
          <mxGeometry x="1520" y="550" width="90" height="140" as="geometry" />
        </mxCell>
      </root>
    </mxGraphModel>
  </diagram>
</mxfile>
